<?xml version="1.0" encoding="UTF-8"?>
<!DOCTYPE svg PUBLIC "-//W3C//DTD SVG 1.1//EN" "http://www.w3.org/Graphics/SVG/1.1/DTD/svg11.dtd">
<!-- Creator: CorelDRAW 2021 (64-Bit) -->
<svg xmlns="http://www.w3.org/2000/svg" xml:space="preserve" width="71px" height="39px" version="1.1" style="shape-rendering:geometricPrecision; text-rendering:geometricPrecision; image-rendering:optimizeQuality; fill-rule:evenodd; clip-rule:evenodd"
viewBox="0 0 3.6 1.96"
 xmlns:xlink="http://www.w3.org/1999/xlink"
 xmlns:xodm="http://www.corel.com/coreldraw/odm/2003">
 <defs>
  <style type="text/css">
   <![CDATA[
    .fil0 {fill:#2B2A29}
    .fil1 {fill:#2B2A29;fill-rule:nonzero}
   ]]>
  </style>
 </defs>
 <g id="Layer_x0020_1">
  <metadata id="CorelCorpID_0Corel-Layer"/>
  <g id="_1694190286960">
   <g>
    <path class="fil0" d="M0.99 0.51l-0.01 0c-0.02,0.02 -0.13,0.13 -0.16,0.16 -0.09,0.08 -0.6,0.59 -0.63,0.64 -0.05,0.07 -0.08,0.16 -0.07,0.26 0.01,0.18 0.13,0.31 0.27,0.36 0.37,0.14 0.71,-0.25 0.51,-0.6 -0.05,-0.09 -0.08,-0.08 -0.14,-0.18 -0.08,-0.15 -0.07,-0.35 0.06,-0.48 0.06,-0.05 0.11,-0.1 0.17,-0.16z"/>
    <path class="fil0" d="M0.98 0.51l0.01 0c0.02,-0.02 0.05,-0.05 0.07,-0.08 0.21,-0.21 0.13,-0.17 0.33,-0.17 0.11,0 0.22,0.02 0.25,-0.08 0.02,-0.05 0,-0.1 -0.02,-0.12 -0.02,-0.03 -0.06,-0.04 -0.09,-0.04 -0.01,0 -0.01,0 -0.02,0l-0.01 0c-0.05,0 -0.09,0.06 -0.13,0.11 -0.04,0.03 -0.08,0.07 -0.12,0.11 -0.03,0.02 -0.03,0.02 -0.1,0.02l-0.81 -0.01c-0.12,0 -0.22,0.05 -0.28,0.14 -0.01,0.01 -0.02,0.02 -0.02,0.03 0.01,-0.09 0.1,-0.19 0.18,-0.25 0.09,-0.07 0.2,-0.09 0.34,-0.09 0.01,0.01 0.02,0.06 0.07,0.06 0.11,0 0.1,-0.14 0,-0.14 -0.04,0 -0.05,0.03 -0.07,0.07 -0.47,-0.01 -0.62,0.42 -0.54,0.62 0.04,0.09 0.12,0.17 0.22,0.19 0.17,0.05 0.33,-0.05 0.38,-0.19 0.02,-0.07 0.01,-0.12 0.03,-0.18 0.02,-0.11 0.09,-0.19 0.18,-0.22 0.09,-0.04 0.28,-0.03 0.39,-0.03l-0.12 0.13c-0.03,0.03 -0.1,0.09 -0.12,0.12z"/>
    <path class="fil0" d="M1.5 0.02c-0.01,0 -0.01,0 -0.01,0.01 0,0 0,0 0,0l-0.03 0.01c-0.03,0.02 -0.07,0.07 -0.09,0.09 -0.02,0.02 -0.04,0.04 -0.06,0.06 -0.01,0.01 -0.02,0.02 -0.03,0.03l-0.03 0.04c0.09,-0.01 0.3,0.02 0.35,-0.03 0.04,-0.04 0.05,-0.1 0.03,-0.15 -0.03,-0.05 -0.06,-0.05 -0.13,-0.06z"/>
   </g>
   <path class="fil1" d="M1.45 1.46c0,0.16 -0.05,0.16 -0.1,0.16 -0.04,0 -0.07,-0.04 -0.07,-0.15l0 -0.45 0.04 0 0 -0.03 -0.04 0c0,-0.06 0,-0.11 0,-0.17l-0.17 0.02 0 0.01c0.02,0 0.04,0.02 0.04,0.05l0 0.09 -0.04 0 0 0.03 0.04 0 0 0.45c0,0.13 0.1,0.18 0.2,0.18 0.08,0 0.14,-0.03 0.15,-0.13l-0.05 -0.06zm0.71 -0.26c-0.05,-0.12 -0.17,-0.21 -0.3,-0.21 -0.18,0 -0.33,0.15 -0.33,0.33 0,0.18 0.15,0.33 0.33,0.33 0.08,0 0.16,-0.04 0.22,-0.09 -0.04,-0.05 0.02,0.02 -0.06,-0.08 -0.04,0.09 -0.1,0.14 -0.16,0.14 -0.11,0 -0.19,-0.13 -0.19,-0.3 0,-0.04 0,-0.08 0.01,-0.12l0.48 0zm-0.3 -0.18c0.07,0 0.13,0.06 0.16,0.16l-0.33 0c0.03,-0.1 0.09,-0.16 0.17,-0.16l0 0zm1.7 0.55l0 -0.25c0,-0.19 -0.11,-0.33 -0.31,-0.33 -0.19,0 -0.24,0.21 -0.32,0.39 -0.05,0.13 -0.15,0.23 -0.28,0.24 -0.19,0.02 -0.35,-0.24 -0.3,-0.42l0.48 0c-0.04,-0.12 -0.16,-0.21 -0.3,-0.21 -0.45,0 -0.45,0.73 0.12,0.66 0.13,-0.02 0.23,-0.12 0.29,-0.23l0 0.15c-0.01,0.02 -0.02,0.04 -0.04,0.04l0 0.01 0.2 0 0 -0.01c-0.02,0 -0.04,-0.02 -0.04,-0.04l0 -0.43c0.05,-0.07 0.1,-0.12 0.19,-0.12 0.14,0 0.18,0.2 0.18,0.3l0 0.25c0,0.02 -0.02,0.04 -0.04,0.04l0 0.01c0.07,0 0.14,0 0.21,0l0 -0.01c-0.03,0 -0.04,-0.02 -0.04,-0.04l0 0zm-1.03 -0.55c0.07,0 0.14,0.06 0.17,0.16l-0.35 0c0.03,-0.1 0.11,-0.16 0.18,-0.16l0 0zm0.41 0.08l0 0.24c0,-0.02 0.01,-0.04 0.02,-0.07 0.01,-0.01 0.02,-0.03 0.03,-0.06 0.02,-0.04 0.04,-0.09 0.07,-0.13l0 -0.06 -0.16 0.02 0 0.01c0.02,0.01 0.04,0.02 0.04,0.05z"/>
  </g>
 </g>
</svg>
