<?xml version="1.0" encoding="UTF-8"?>
<!DOCTYPE svg PUBLIC "-//W3C//DTD SVG 1.1//EN" "http://www.w3.org/Graphics/SVG/1.1/DTD/svg11.dtd">
<!-- Creator: CorelDRAW 2021 (64-Bit) -->
<svg xmlns="http://www.w3.org/2000/svg" xml:space="preserve" width="177px" height="39px" version="1.1" style="shape-rendering:geometricPrecision; text-rendering:geometricPrecision; image-rendering:optimizeQuality; fill-rule:evenodd; clip-rule:evenodd"
viewBox="0 0 34.17 7.47"
 xmlns:xlink="http://www.w3.org/1999/xlink"
 xmlns:xodm="http://www.corel.com/coreldraw/odm/2003">
 <defs>
  <style type="text/css">
   <![CDATA[
    .fil1 {fill:#FC9622}
    .fil0 {fill:#0C4727;fill-rule:nonzero}
   ]]>
  </style>
 </defs>
 <g id="Layer_x0020_1">
  <metadata id="CorelCorpID_0Corel-Layer"/>
  <g id="_1691615348304">
   <path class="fil0" d="M1.43 1.52l0 2.18c0.3,-0.02 0.55,-0.11 0.69,-0.39 0.03,-0.06 0.09,-0.11 0.16,-0.11 0.1,0 0.19,0.09 0.19,0.19 0,0.24 0,0.47 0,0.71 0,0.1 -0.09,0.19 -0.19,0.19 -0.07,0 -0.13,-0.05 -0.16,-0.11 -0.14,-0.28 -0.39,-0.37 -0.69,-0.39l0 2.18 0.59 0c0.43,0 0.76,-0.28 0.93,-0.79 0.03,-0.1 0.1,-0.21 0.22,-0.21 0.09,0 0.18,0.08 0.18,0.18l0 0.89 -1.92 0 -1.25 0c-0.1,0 -0.18,-0.08 -0.18,-0.18 0,-0.08 0.04,-0.14 0.11,-0.17 0.36,-0.18 0.4,-0.54 0.4,-0.98 0,-0.64 0,-1.29 0,-1.93 0,-0.44 -0.04,-0.8 -0.4,-0.98 -0.07,-0.03 -0.11,-0.09 -0.11,-0.17 0,-0.1 0.08,-0.18 0.18,-0.18 1.06,0 2.11,0 3.17,0l0 0.89c0,0.1 -0.09,0.18 -0.18,0.18 -0.12,0 -0.19,-0.11 -0.22,-0.21 -0.17,-0.51 -0.5,-0.79 -0.93,-0.79l-0.59 0zm2.42 1.54c-0.1,0 -0.18,0.08 -0.18,0.18 0,0.08 0.04,0.14 0.1,0.17 0.37,0.18 0.4,0.55 0.4,0.98 0,0.11 0,0.21 0,0.32 0,0.44 -0.03,0.8 -0.4,0.98 -0.06,0.03 -0.1,0.09 -0.1,0.17 0,0.1 0.08,0.18 0.18,0.18 0.52,0 1.04,0 1.57,0 0.1,0 0.18,-0.08 0.18,-0.18 0,-0.08 -0.04,-0.14 -0.11,-0.17 -0.36,-0.18 -0.4,-0.54 -0.4,-0.98 0,-0.21 0,-0.42 0,-0.63l0 -0.8c0.45,-0.49 1.14,-0.3 1.14,0.69 0,0.25 0,0.49 0,0.74 0,0.44 -0.04,0.8 -0.4,0.98 -0.06,0.03 -0.11,0.09 -0.11,0.17 0,0.1 0.08,0.18 0.19,0.18 0.52,0 1.04,0 1.56,0 0.1,0 0.19,-0.08 0.19,-0.18 0,-0.08 -0.05,-0.14 -0.11,-0.17 -0.37,-0.18 -0.4,-0.54 -0.4,-0.98 0,-0.25 0,-0.49 0,-0.74 -0.01,-1.18 -1.32,-1.46 -2.06,-0.77 0,-0.1 0,-0.2 0,-0.3 0,-0.04 -0.03,-0.07 -0.07,-0.07 -0.02,0 -0.03,0 -0.05,0.01 -0.29,0.15 -0.76,0.22 -1.12,0.22zm4.15 2.98c-0.11,0 -0.18,-0.08 -0.18,-0.18 0,-0.08 0.04,-0.14 0.1,-0.17 0.37,-0.18 0.4,-0.54 0.4,-0.98 0,-0.57 0,-1.13 0,-1.69 0,-0.44 -0.03,-0.81 -0.4,-0.98 -0.06,-0.04 -0.1,-0.1 -0.1,-0.17 0,-0.1 0.07,-0.19 0.18,-0.19 0.35,0 0.83,-0.07 1.12,-0.22 0.01,0 0.03,-0.01 0.04,-0.01 0.05,0 0.08,0.03 0.08,0.08 0,1.06 0,2.12 0,3.18 0,0.44 0.03,0.8 0.4,0.98 0.06,0.03 0.11,0.09 0.11,0.17 0,0.1 -0.09,0.18 -0.19,0.18 -0.52,0 -1.04,0 -1.56,0zm2.87 -4.59c0.3,0 0.54,0.24 0.54,0.54 0,0.29 -0.24,0.53 -0.54,0.53 -0.29,0 -0.53,-0.24 -0.53,-0.53 0,-0.3 0.24,-0.54 0.53,-0.54zm0.46 3.26c0,0.44 0.04,0.8 0.4,0.98 0.07,0.03 0.11,0.09 0.11,0.17 0,0.1 -0.08,0.18 -0.18,0.18 -0.53,0 -1.05,0 -1.57,0 -0.1,0 -0.18,-0.08 -0.18,-0.18 0,-0.08 0.04,-0.14 0.1,-0.17 0.37,-0.18 0.4,-0.54 0.4,-0.98 0,-0.12 0,-0.24 0,-0.37 0,-0.41 -0.04,-0.76 -0.4,-0.93 -0.06,-0.03 -0.1,-0.09 -0.1,-0.17 0,-0.1 0.08,-0.18 0.18,-0.18 0.36,0 0.83,-0.07 1.12,-0.22 0.02,-0.01 0.03,-0.01 0.05,-0.01 0.04,0 0.07,0.03 0.07,0.07 0,0.6 0,1.21 0,1.81zm2.34 -1.88c0.34,0 0.66,0.09 0.92,0.26 0.06,-0.31 0.3,-0.8 0.68,-0.8 0.21,0 0.37,0.17 0.37,0.38 0,0.2 -0.16,0.37 -0.37,0.37 -0.21,0 -0.57,-0.35 -0.63,0.09 0.33,0.24 0.55,0.6 0.55,1 0,0.72 -0.68,1.3 -1.52,1.3 -0.46,0 -0.86,-0.17 -1.14,-0.44 -0.18,0.14 -0.29,0.3 -0.33,0.46 -0.11,0.43 0.36,0.48 0.75,0.43 0.29,-0.01 0.6,-0.12 0.9,-0.22 1.21,-0.4 2.03,0.53 1.42,1.32 -0.15,0.2 -0.37,0.35 -0.61,0.45 -0.06,0.03 -0.13,0.04 -0.19,0.04 -0.26,0 -0.46,-0.21 -0.46,-0.46 0,-0.26 0.2,-0.46 0.46,-0.46 0.32,0 0.58,0.42 0.38,0.72 0.16,-0.09 0.28,-0.2 0.36,-0.31 0.31,-0.39 -0.01,-0.79 -0.51,-0.68 -0.51,0.11 -1.29,0.49 -1.71,0.52 -0.99,0.05 -0.99,-0.89 -0.85,-1.37 0.05,-0.16 0.16,-0.34 0.35,-0.48 -0.21,-0.23 -0.34,-0.51 -0.34,-0.82 0,-0.72 0.68,-1.3 1.52,-1.3zm0 0.06c-0.33,0 -0.6,0.55 -0.6,1.24 0,0.69 0.27,1.24 0.6,1.24 0.33,0 0.6,-0.55 0.6,-1.24 0,-0.69 -0.27,-1.24 -0.6,-1.24zm3.38 0.31c0.74,-0.69 2.05,-0.41 2.06,0.77 0,0.25 0,0.49 0,0.74 0,0.44 0.03,0.8 0.4,0.98 0.06,0.03 0.1,0.1 0.1,0.17 0,0.1 -0.08,0.18 -0.18,0.18 -0.52,0 -1.04,0 -1.57,0 -0.1,0 -0.18,-0.08 -0.18,-0.18 0,-0.07 0.04,-0.14 0.11,-0.17 0.36,-0.18 0.4,-0.54 0.4,-0.98 0,-0.25 0,-0.49 0,-0.74 0,-0.99 -0.69,-1.18 -1.14,-0.69 0,0.47 0,0.95 0,1.43 0,0.44 0.03,0.8 0.4,0.98 0.06,0.03 0.11,0.1 0.11,0.17 0,0.1 -0.08,0.18 -0.19,0.18 -0.52,0 -1.04,0 -1.56,0 -0.1,0 -0.19,-0.08 -0.19,-0.18 0,-0.07 0.05,-0.14 0.11,-0.17 0.37,-0.18 0.4,-0.54 0.4,-0.98 0,-0.57 0,-1.13 0,-1.69 0,-0.44 -0.03,-0.81 -0.4,-0.98 -0.06,-0.04 -0.11,-0.1 -0.11,-0.17 0,-0.1 0.09,-0.19 0.19,-0.19 0.35,0 0.83,-0.07 1.12,-0.22 0.01,0 0.03,-0.01 0.04,-0.01 0.04,0 0.08,0.03 0.08,0.08 0,0.55 0,1.11 0,1.67zm3.68 0.15l0.46 0 0 0.06 -0.46 0 0 1.18 0 0.31c0,0.78 0.43,1.06 0.83,0.91l0.03 0.06c-0.75,0.41 -1.78,0.07 -1.78,-0.97l0 -0.31c0,-0.41 0,0.21 0,-0.2 0,-0.44 -0.08,-0.83 -0.46,-0.98l0 -0.06c0.35,0 1.2,-0.48 1.25,-1.11 0.01,-0.08 0.13,-0.08 0.13,0l0 1.11zm1.58 1.49c0.06,0.14 0.14,0.27 0.24,0.38 0.53,0.59 1.55,0.28 1.64,-0.39 0,0.64 -0.49,1.21 -1.31,1.21 -0.89,0 -1.61,-0.72 -1.61,-1.61 0,-0.89 0.72,-1.6 1.61,-1.6 0.82,0 1.14,0.53 1.19,0.83 0.14,0.87 -1.1,1.25 -1.76,1.18zm0.46 -1.94c-0.61,0.06 -0.77,0.98 -0.55,1.69 0.01,0.07 0.04,0.13 0.06,0.19 1.1,0.13 1.15,-1.95 0.49,-1.88zm1.75 0.16c-0.1,0 -0.18,0.08 -0.18,0.18 0,0.08 0.04,0.14 0.1,0.17 0.37,0.18 0.4,0.55 0.4,0.98 0,0.11 0,0.21 0,0.32 0,0.44 -0.03,0.8 -0.4,0.98 -0.06,0.03 -0.1,0.09 -0.1,0.17 0,0.1 0.08,0.18 0.18,0.18 0.52,0 1.04,0 1.57,0 0.09,0 0.18,-0.08 0.18,-0.18 0,-0.08 -0.04,-0.14 -0.11,-0.17 -0.36,-0.18 -0.4,-0.54 -0.4,-0.98 0,-0.21 0,-0.42 0,-0.63l0 -0.8c0.45,-0.49 1.14,-0.3 1.14,0.69 0,0.25 0,0.49 0,0.74 0,0.44 -0.04,0.8 -0.4,0.98 -0.07,0.03 -0.11,0.09 -0.11,0.17 0,0.1 0.08,0.18 0.18,0.18 0.53,0 1.05,0 1.57,0 0.1,0 0.18,-0.08 0.18,-0.18 0,-0.08 -0.04,-0.14 -0.1,-0.17 -0.37,-0.18 -0.4,-0.54 -0.4,-0.98 0,-0.25 0,-0.49 0,-0.74 -0.01,-1.18 -1.32,-1.46 -2.06,-0.77 0,-0.1 0,-0.2 0,-0.3 0,-0.04 -0.03,-0.07 -0.08,-0.07 -0.01,0 -0.02,0 -0.04,0.01 -0.29,0.15 -0.77,0.22 -1.12,0.22z"/>
   <path class="fil1" d="M32.43 0.44c-0.12,-0.13 -0.05,-0.17 -0.25,-0.27 0,0 0.01,0 0.01,0.01 0,0.01 0.01,0.02 0.01,0.02 0.11,0.11 0.09,0.15 0.16,0.23 0.13,0.17 0.1,0 0.17,0.3 0.08,0.39 0.12,0.3 0.13,0.79l-0.09 -0.06c-0.08,-0.07 -0.14,-0.17 -0.17,-0.27 0,0.01 -0.01,0.01 -0.01,0.02l-0.02 0.07c0,0 0,0.01 0,0.01 0,0.01 0,0.02 0,0.02 -0.05,0 -0.08,0.01 -0.11,0.05 0.01,0 0.02,0 0.02,0.01 0.01,0.02 0.04,0.01 0.08,0.02 0,0 0.01,0.01 0.02,0.01 0,0 0.01,0 0.02,0.01 0,0 0.12,0.06 0.13,0.07 0.04,0.03 0.11,0.17 0.13,0.24 0.06,0.17 0.11,0.48 0.12,0.66 0.03,0.3 -0.15,0.53 0.07,0.98 0.07,0.13 0.12,0.09 0.05,0.3 -0.15,-0.03 -0.35,-0.52 -0.39,-0.68 -0.06,-0.22 -0.23,-0.68 -0.18,-0.89 -0.2,0.03 -0.24,0.02 -0.27,-0.15 -0.04,-0.18 -0.09,-0.2 -0.08,-0.36 -0.01,0.04 -0.03,0.09 0.01,0.14 -0.08,0.09 0.01,0.02 -0.11,0.07l0.14 0.01c0.07,0.27 -0.02,0.28 0.25,0.36l0.05 0.27 -0.13 0.06c0.16,0.04 0.13,0.01 0.19,0.19 0.03,0.09 0.09,0.19 0.04,0.29 -0.15,-0.06 -0.11,-0.21 -0.19,-0.3 -0.13,-0.12 -0.25,0.06 -0.3,-0.22 -0.04,0.07 -0.05,0.15 -0.13,0.21 -0.04,0.04 -0.04,0.03 -0.1,0.05 -0.14,0.04 -0.08,-0.04 -0.12,0.05 0.1,0.07 0.29,-0.13 0.42,-0.12 0.21,0.02 0.29,0.15 0.29,0.35 -0.1,0.02 -0.02,-0.05 -0.09,0.09 0.02,-0.06 0.16,-0.05 0.23,-0.02 0.07,0.04 0.09,0.11 0.13,0.21 0.08,0.19 0.13,0.28 0.09,0.55 -0.11,-0.01 -0.16,-0.06 -0.21,-0.13 -0.07,-0.09 -0.03,-0.14 -0.06,-0.25l-0.04 0.11c-0.04,-0.14 -0.01,-0.06 -0.04,-0.06 -0.14,-0.01 0.15,0.05 -0.07,0.02 -0.12,-0.01 -0.13,-0.12 -0.17,0.02 0.12,-0.05 0.27,0.04 0.3,0.19 0.06,0.44 -0.05,0.98 -0.33,1.27 -0.86,0.91 -2.5,0.46 -2.53,-0.79 -0.01,-0.71 0.03,-1.45 0,-2.15l-0.88 -0.82c-0.07,-0.06 -0.09,-0.07 -0.15,-0.13 -0.06,-0.07 -0.07,-0.09 -0.15,-0.13 0,0.65 0,1.3 0,1.95 0,0.89 -0.11,1.81 0.4,2.55 0.08,0.12 0.13,0.16 0.22,0.26 0.43,0.44 0.89,0.75 1.63,0.83 0.79,0.1 1.68,-0.13 2.2,-0.68 0.09,-0.1 0.14,-0.15 0.24,-0.24 0.06,-0.06 0.15,-0.21 0.21,-0.3 0.55,-0.86 0.12,-1.4 0.48,-2.45 0.05,-0.17 0.03,-0.25 0.17,-0.32 0.12,-0.06 0.06,-0.04 0.14,-0.11 0.04,-0.04 0.04,-0.02 0.08,-0.05l0.03 -0.02c0.04,-0.03 0.02,-0.01 0.05,-0.04l-0.11 0.05 -0.09 -0.03c-0.01,0.01 -0.03,0.05 -0.04,0.06 -0.07,0.09 -0.17,0.11 -0.24,0.19 -0.05,0.05 -0.06,0.08 -0.13,0.08l0.02 -0.38c-0.09,0.11 -0.1,0.27 -0.09,0.42 -0.17,-0.02 -0.15,-0.13 -0.24,-0.25 -0.01,0.15 0.09,0.09 0.01,0.22 0.18,0.05 0.28,0.21 0.18,0.38 -0.05,0.08 -0.24,0.33 -0.35,0.28 -0.15,-0.13 -0.07,-0.2 -0.12,-0.41 -0.06,-0.25 -0.14,-0.39 0,-0.62 0.08,-0.13 0.03,-0.09 0.05,-0.24 0.02,-0.15 0.06,-0.3 0.27,-0.29l-0.08 -0.15c-0.03,0.07 -0.02,0.06 -0.09,0.1 -0.01,-0.41 0.06,-0.38 0.29,-0.62 0.24,-0.26 0.2,-0.11 0.48,-0.06 -0.06,-0.13 -0.24,-0.13 -0.31,-0.22 -0.05,-0.08 -0.09,-0.24 -0.07,-0.34 0.03,-0.16 0.16,-0.11 0.2,-0.28 -0.44,0.12 -0.13,0.5 -0.23,0.73 -0.1,0.21 -0.42,0.18 -0.46,0.69 -0.01,0.16 -0.02,0.21 -0.16,0.23 -0.07,-0.08 -0.12,-0.24 -0.11,-0.37 0.02,-0.19 -0.03,-0.25 0.02,-0.46 0.11,-0.03 0.26,-0.05 0.35,-0.12l-0.21 0.05c0.03,-0.13 0.06,-0.13 0.08,-0.27 -0.01,0.01 -0.01,0.01 -0.01,0.02 -0.01,0.01 -0.01,0.02 -0.02,0.02 -0.06,0.12 -0.08,0.23 -0.23,0.26 -0.09,-0.09 -0.21,-0.43 -0.1,-0.54 0.07,-0.06 0.18,-0.05 0.21,-0.16 0.02,-0.07 0.03,-0.29 0.02,-0.32 -0.07,0.09 -0.02,0.26 -0.1,0.34 -0.04,0.03 -0.26,0.11 -0.33,0.1z"/>
  </g>
 </g>
</svg>
