<?xml version="1.0" encoding="UTF-8"?>
<!DOCTYPE svg PUBLIC "-//W3C//DTD SVG 1.1//EN" "http://www.w3.org/Graphics/SVG/1.1/DTD/svg11.dtd">
<!-- Creator: CorelDRAW 2021 (64-Bit) -->
<svg xmlns="http://www.w3.org/2000/svg" xml:space="preserve" width="83px" height="39px" version="1.1" style="shape-rendering:geometricPrecision; text-rendering:geometricPrecision; image-rendering:optimizeQuality; fill-rule:evenodd; clip-rule:evenodd"
viewBox="0 0 2.97 1.37"
 xmlns:xlink="http://www.w3.org/1999/xlink"
 xmlns:xodm="http://www.corel.com/coreldraw/odm/2003">
 <defs>
  <style type="text/css">
   <![CDATA[
    .fil0 {fill:#2B2A29}
    .fil1 {fill:#2B2A29;fill-rule:nonzero}
   ]]>
  </style>
 </defs>
 <g id="Layer_x0020_1">
  <metadata id="CorelCorpID_0Corel-Layer"/>
  <g id="_1691718170512">
   <path class="fil0" d="M0.21 1.06l0.36 -0.07c0.04,0.2 0.08,0.24 -0.04,0.27l0 0 -0.03 -0.17 -0.1 0.02 0.04 0.17c-0.03,0 -0.05,0 -0.08,0.01 -0.02,-0.05 -0.03,-0.11 -0.05,-0.17l-0.09 0.02c0.05,0.25 0.05,0.27 0.36,0.2 0.11,-0.03 0.14,-0.06 0.12,-0.17 -0.01,-0.09 -0.03,-0.19 -0.06,-0.28l-0.38 0.07c-0.05,-0.07 -0.15,-0.36 -0.16,-0.46 -0.03,-0.17 0.03,-0.32 0.14,-0.38 0.15,-0.09 0.28,0.08 0.31,0.22 0.02,0.1 -0.01,0.14 -0.02,0.23 -0.01,0.06 -0.01,0.12 0,0.18l0.09 -0.01c-0.03,-0.2 0.08,-0.31 -0.01,-0.51 -0.17,-0.42 -0.66,-0.22 -0.61,0.27 0.02,0.12 0.15,0.49 0.21,0.56zm0.32 0.2l0 0 0 0 0 0zm0 0l0 0 -0.01 0 0.01 0zm-0.02 0l0 0 0 0 0 0zm-0.01 0l0 0 0 0 0 0zm0 0l0 0 0 0 0 0zm-0.01 0.01l0 0 0 0 0 0zm0 0l0 0 -0.01 0 0.01 0zm-0.01 0l0 0 0 0 0 0zm0 0l0 0 0 0 0 0zm0 0l0 0 -0.01 0 0.01 0zm-0.01 0l0 0 0 0 0 0zm0 0l0 0 0 0 0 0zm0 0l0 0 0 0 0 0zm0 0l-0.01 0 0 0 0.01 0zm-0.01 0l0 0 0 0 0 0zm0 0l0 0 0 0 0 0zm-0.01 0l0 0 0 0 0 0zm0 0l0 0 0 0 0 0zm0 0l0 0 0 0 0 0zm-0.01 0l0 0 0 0 0 0zm0 0.01l0 0 0 0 0 0z"/>
   <g>
    <path class="fil1" d="M1.14 0.33c-0.03,-0.06 -0.09,-0.08 -0.15,-0.08 -0.07,0 -0.15,0.04 -0.15,0.12 0,0.08 0.07,0.1 0.15,0.11 0.05,0.01 0.09,0.02 0.09,0.06 0,0.04 -0.04,0.06 -0.09,0.06 -0.05,0 -0.09,-0.02 -0.11,-0.06l-0.06 0.03c0.03,0.07 0.09,0.09 0.17,0.09 0.08,0 0.16,-0.04 0.16,-0.12 0,-0.09 -0.07,-0.11 -0.15,-0.12 -0.05,-0.01 -0.09,-0.02 -0.09,-0.05 0,-0.03 0.03,-0.05 0.08,-0.05 0.04,0 0.08,0.02 0.09,0.04l0.06 -0.03zm0.2 0.05c-0.09,0 -0.14,0.06 -0.14,0.14 0,0.07 0.05,0.14 0.14,0.14 0.09,0 0.14,-0.07 0.14,-0.14 0,-0.08 -0.05,-0.14 -0.14,-0.14zm0 0.06c0.05,0 0.07,0.04 0.07,0.08 0,0.04 -0.02,0.08 -0.07,0.08 -0.05,0 -0.07,-0.04 -0.07,-0.08 0,-0.04 0.02,-0.08 0.07,-0.08zm0.19 -0.17l0 0.38 0.06 0 0 -0.38 -0.06 0zm0.39 0.27c0.01,-0.11 -0.04,-0.17 -0.13,-0.17 -0.09,0 -0.15,0.06 -0.15,0.14 0,0.09 0.06,0.15 0.15,0.15 0.04,0 0.09,-0.02 0.12,-0.04l-0.05 -0.05c-0.01,0.02 -0.04,0.03 -0.07,0.03 -0.05,0 -0.07,-0.03 -0.08,-0.06l0.21 0zm-0.21 -0.06c0.01,-0.03 0.04,-0.05 0.08,-0.05 0.04,0 0.06,0.02 0.07,0.05l-0.15 0zm0.52 -0.08c0.06,0 0.11,0.04 0.11,0.12 0,0.07 -0.05,0.11 -0.11,0.11 -0.06,0 -0.11,-0.05 -0.11,-0.11 0,-0.07 0.05,-0.12 0.11,-0.12zm-0.14 -0.13l0 0.38 0.03 0 0 -0.06c0.02,0.04 0.07,0.07 0.11,0.07 0.08,0 0.14,-0.05 0.14,-0.14 0,-0.09 -0.06,-0.14 -0.14,-0.14 -0.04,0 -0.09,0.02 -0.11,0.06l0 -0.17 -0.03 0zm0.54 0.11l-0.07 0.16 -0.03 0.08 -0.03 -0.08 -0.07 -0.16 -0.03 0 0.11 0.27 -0.05 0.12 0.03 0 0.17 -0.39 -0.03 0zm-1.45 0.74l0 0 0 0zm0 0l0 0 0 0zm0.08 -0.19c-0.01,0.01 -0.02,0.03 -0.04,0.04 -0.01,0.02 -0.02,0.04 -0.03,0.05 0,0.02 -0.01,0.04 -0.01,0.06 0,0.01 0,0.03 0,0.04l0 0 -0.09 0 -0.04 -0.17c-0.01,0.01 -0.02,0.03 -0.03,0.04 0,0.02 -0.01,0.03 -0.01,0.04 0,0.02 0,0.03 0,0.04 0,0.02 0,0.03 0.01,0.05l-0.09 0 -0.1 -0.38 0.08 0 0.08 0.29c0.01,-0.02 0.01,-0.05 0.02,-0.07 0,-0.02 0.01,-0.04 0.02,-0.06l-0.04 -0.16 0.09 0 0.08 0.32c0.01,-0.03 0.01,-0.05 0.02,-0.08 0.01,-0.02 0.02,-0.04 0.03,-0.06 0.01,-0.02 0.02,-0.04 0.02,-0.06 0.01,-0.02 0.01,-0.04 0.02,-0.06 0,-0.01 -0.01,-0.03 -0.01,-0.04 -0.01,-0.01 -0.02,-0.01 -0.03,-0.02 -0.01,0 -0.02,0 -0.03,0.01 0,0 -0.01,0 -0.02,0.01 0,0 -0.01,0.01 -0.01,0.02 -0.01,0.01 -0.01,0.02 0,0.03 0,0.01 0,0.02 0.01,0.03 0.01,0.01 0.02,0.02 0.04,0.03l-0.02 0.04c-0.02,-0.01 -0.03,-0.03 -0.04,-0.05 -0.01,-0.01 -0.02,-0.03 -0.02,-0.04 0,-0.02 0,-0.03 0.01,-0.04 0,-0.01 0.01,-0.02 0.02,-0.03 0.01,-0.01 0.02,-0.02 0.04,-0.02 0.01,0 0.03,0 0.05,0 0.02,0.01 0.04,0.02 0.05,0.03 0.01,0.02 0.02,0.04 0.02,0.05 0,0.02 0,0.04 -0.01,0.06 -0.01,0.02 -0.02,0.04 -0.04,0.06zm0.33 0.12c0,0.03 -0.02,0.04 -0.03,0.06 -0.02,0.01 -0.04,0.02 -0.07,0.02 -0.02,0 -0.04,0 -0.06,-0.01 -0.02,0 -0.04,-0.01 -0.05,-0.02 -0.02,-0.01 -0.03,-0.02 -0.04,-0.03 -0.01,-0.02 -0.02,-0.03 -0.03,-0.05 -0.01,-0.03 -0.01,-0.05 -0.01,-0.07 0.01,-0.02 0.01,-0.04 0.02,-0.05 0.01,-0.02 0.02,-0.03 0.04,-0.04 0.01,-0.01 0.03,-0.01 0.04,-0.01 0.01,-0.01 0.02,-0.01 0.03,-0.01 0.02,0 0.03,0 0.04,0 0.01,0 0.02,0 0.03,0.01 0.01,0 0.02,0 0.03,0.01 0.02,0.01 0.03,0.02 0.04,0.03 0.01,0.01 0.02,0.03 0.02,0.04 0,0.01 0,0.03 0,0.04 -0.01,0.01 -0.02,0.02 -0.03,0.03 -0.01,0.01 -0.02,0.02 -0.04,0.03 -0.01,0 -0.03,0.01 -0.05,0.01 -0.02,0 -0.04,-0.01 -0.05,-0.01 0.01,0.02 0.02,0.04 0.03,0.05 0.02,0.02 0.03,0.03 0.04,0.03 0.02,0.01 0.03,0.01 0.04,0 0.01,-0.01 0.02,-0.03 0.03,-0.06l0.03 0zm-0.19 -0.19c-0.01,0 -0.01,0 -0.02,0.01 0,0.01 0,0.01 0,0.02 0,0.01 0,0.02 0,0.03 0,0.01 0,0.01 0.01,0.02 0,0.01 0.01,0.02 0.01,0.03 0.01,0.01 0.01,0.02 0.02,0.02 0.01,0.01 0.02,0.02 0.03,0.02 0,0.01 0.01,0.01 0.02,0.01 0.01,0 0.01,0 0.02,-0.01 0.01,0 0.01,-0.01 0.01,-0.02 0,-0.01 0,-0.02 0,-0.04 0,-0.01 -0.01,-0.03 -0.03,-0.05 0,0 -0.01,-0.01 -0.02,-0.02 0,0 -0.01,-0.01 -0.01,-0.02 -0.01,0 -0.02,0 -0.02,-0.01 -0.01,0 -0.02,0 -0.02,0.01zm0.38 0.1c0.02,0.01 0.03,0.01 0.04,0.02 0.01,0 0.02,0.01 0.03,0.02 0.01,0 0.01,0.01 0.01,0.02 0.01,0 0.01,0.01 0.01,0.02 0,0.02 -0.01,0.04 -0.02,0.05 -0.01,0.02 -0.03,0.03 -0.05,0.03 -0.01,0.01 -0.02,0.01 -0.04,0.01 -0.01,0 -0.03,0 -0.05,-0.01 -0.01,0 -0.03,0 -0.05,-0.01 -0.01,-0.01 -0.03,-0.02 -0.04,-0.03l0.04 -0.05c0.01,-0.01 0.02,-0.01 0.03,-0.01 0,0 0.01,0.01 0.02,0.02 0,0 0.01,0.01 0.02,0.02 0,0.01 0.01,0.02 0.02,0.03 0.01,0.01 0.01,0.02 0.02,0.02 0.01,0.01 0.02,0.01 0.03,0 0,0 0,0 0.01,-0.01 0,0 0,-0.01 0,-0.01 0,-0.01 0,-0.01 0,-0.02 0,-0.01 -0.01,-0.02 -0.02,-0.02 -0.01,-0.01 -0.02,-0.02 -0.04,-0.03 -0.01,0 -0.03,-0.01 -0.06,-0.02 -0.02,0 -0.03,-0.01 -0.04,-0.02 -0.01,-0.01 -0.02,-0.02 -0.03,-0.03 0,-0.01 0,-0.02 0,-0.03 0,-0.01 0,-0.02 0.01,-0.03 0,-0.01 0.01,-0.02 0.02,-0.03 0.01,0 0.02,-0.01 0.03,-0.01 0.03,-0.01 0.06,-0.01 0.1,0 0.03,0 0.06,0.01 0.09,0.04l-0.05 0.05c-0.01,0.01 -0.02,0.01 -0.02,0.01 -0.01,0 -0.02,-0.01 -0.03,-0.02 0,0 -0.01,-0.01 -0.02,-0.02 0,-0.01 -0.01,-0.02 -0.02,-0.03 -0.01,-0.01 -0.02,-0.02 -0.02,-0.02 -0.01,-0.01 -0.02,-0.01 -0.03,0 -0.01,0 -0.01,0 -0.01,0.01 -0.01,0 -0.01,0 -0.01,0.01 0,0.01 0,0.01 0,0.02 0.01,0.01 0.01,0.01 0.02,0.02 0.01,0.01 0.02,0.02 0.04,0.02 0.02,0.01 0.04,0.02 0.06,0.02zm0.25 0.16c-0.04,0 -0.08,-0.01 -0.1,-0.02 -0.02,-0.02 -0.03,-0.04 -0.03,-0.07l0 -0.17 -0.01 0 0 -0.01 0.01 0 0 -0.02c0,-0.01 0.01,-0.01 0.01,-0.02 0.01,0 0.02,-0.01 0.03,-0.01 0.01,-0.01 0.02,-0.01 0.03,-0.01 0.01,-0.01 0.01,-0.01 0.02,-0.01l0 0.07 0.04 0 0 0.04c0,-0.01 -0.01,-0.01 -0.02,-0.01 -0.01,-0.01 -0.01,-0.01 -0.02,-0.01l0 0.04c0,0 0,0.01 -0.01,0.02 0,0.01 -0.01,0.01 -0.01,0.02 -0.01,0.01 -0.02,0.02 -0.03,0.03 0,0 -0.01,0.01 -0.01,0.02 0,0 -0.01,0.01 0,0.02 0,0 0,0.01 0.01,0.01 0.01,0.01 0.02,0.01 0.04,0.01 0.01,0 0.03,0 0.05,0l0 0.08zm0.31 -0.07c-0.01,0.03 -0.02,0.04 -0.04,0.06 -0.01,0.01 -0.03,0.02 -0.06,0.02 -0.03,0 -0.05,0 -0.07,-0.01 -0.01,0 -0.03,-0.01 -0.05,-0.02 -0.01,-0.01 -0.03,-0.02 -0.04,-0.03 -0.01,-0.02 -0.02,-0.03 -0.02,-0.05 -0.01,-0.03 -0.01,-0.05 -0.01,-0.07 0,-0.02 0.01,-0.04 0.02,-0.05 0.01,-0.02 0.02,-0.03 0.03,-0.04 0.02,-0.01 0.03,-0.01 0.05,-0.01 0.01,-0.01 0.02,-0.01 0.03,-0.01 0.01,0 0.02,0 0.03,0 0.01,0 0.03,0 0.04,0.01 0.01,0 0.02,0 0.03,0.01 0.02,0.01 0.03,0.02 0.04,0.03 0.01,0.01 0.01,0.03 0.02,0.04 0,0.01 0,0.03 -0.01,0.04 0,0.01 -0.01,0.02 -0.02,0.03 -0.01,0.01 -0.02,0.02 -0.04,0.03 -0.02,0 -0.03,0.01 -0.05,0.01 -0.02,0 -0.04,-0.01 -0.06,-0.01 0.01,0.02 0.03,0.04 0.04,0.05 0.01,0.02 0.03,0.03 0.04,0.03 0.01,0.01 0.02,0.01 0.04,0 0.01,-0.01 0.02,-0.03 0.03,-0.06l0.03 0zm-0.2 -0.19c0,0 -0.01,0 -0.01,0.01 0,0.01 -0.01,0.01 -0.01,0.02 0,0.01 0,0.02 0.01,0.03 0,0.01 0,0.01 0,0.02 0.01,0.01 0.01,0.02 0.02,0.03 0,0.01 0.01,0.02 0.02,0.02 0,0.01 0.01,0.02 0.02,0.02 0.01,0.01 0.02,0.01 0.03,0.01 0,0 0.01,0 0.02,-0.01 0,0 0.01,-0.01 0.01,-0.02 0,-0.01 0,-0.02 0,-0.04 -0.01,-0.01 -0.02,-0.03 -0.03,-0.05 -0.01,0 -0.01,-0.01 -0.02,-0.02 -0.01,0 -0.01,-0.01 -0.02,-0.02 0,0 -0.01,0 -0.02,-0.01 0,0 -0.01,0 -0.02,0.01zm0.4 -0.02c0.02,0 0.04,0 0.06,0.01 0.02,0.01 0.03,0.02 0.05,0.04l-0.06 0.06c-0.01,0.01 -0.02,0.01 -0.02,0.01 -0.01,-0.01 -0.01,-0.01 -0.01,-0.02 0,-0.01 -0.01,-0.01 -0.01,-0.03 0,-0.01 0,-0.02 0,-0.03 0,-0.01 -0.01,-0.01 -0.01,-0.02 0,-0.01 -0.01,-0.01 -0.01,-0.01 -0.01,0.01 -0.02,0.01 -0.03,0.03 -0.01,0.01 -0.02,0.02 -0.02,0.04 -0.01,0.02 -0.02,0.04 -0.02,0.06 0,0.02 -0.01,0.05 -0.01,0.07l0 0.07 -0.08 0 0 -0.23c0,0 0,-0.01 0.01,-0.01 0,-0.01 0.01,-0.01 0.02,-0.02 0.01,0 0.02,0 0.03,-0.01 0.01,0 0.02,0 0.02,0l0 0.04c0.02,-0.01 0.03,-0.02 0.04,-0.03 0.02,-0.01 0.03,-0.02 0.05,-0.02zm0.34 0.28l0 -0.17c0,-0.02 0,-0.03 -0.01,-0.04 0,-0.02 0,-0.03 -0.01,-0.03 0,-0.01 0,-0.02 -0.01,-0.02 -0.01,-0.01 -0.02,-0.01 -0.03,-0.01 -0.01,0.01 -0.02,0.01 -0.02,0.02 -0.01,0.02 -0.02,0.03 -0.02,0.05 -0.01,0.01 -0.01,0.03 -0.01,0.05 -0.01,0.03 -0.01,0.05 -0.01,0.07l0 0.08 -0.09 0 0 -0.23c0,0 0.01,-0.01 0.01,-0.01 0.01,-0.01 0.02,-0.01 0.03,-0.02 0.01,0 0.02,-0.01 0.03,-0.01 0.01,0 0.01,0 0.02,0l0 0.03c0.01,-0.01 0.02,-0.02 0.04,-0.03 0.01,0 0.02,-0.01 0.04,-0.01 0.01,0 0.03,0 0.04,0 0.02,0.01 0.03,0.01 0.04,0.02 0.02,0.01 0.03,0.03 0.03,0.04 0.01,0.02 0.02,0.04 0.02,0.06l0 0.16 -0.09 0z"/>
   </g>
  </g>
 </g>
</svg>
